<svg width="32" height="32" viewBox="0 0 32 32" fill="none" xmlns="http://www.w3.org/2000/svg">
<g clip-path="url(#clip0_345_473)">
<path d="M29.7098 13.0949C30.0674 12.0176 30.1909 10.8763 30.0723 9.74735C29.9537 8.61841 29.5955 7.52777 29.0218 6.54827C28.1711 5.06742 26.8721 3.895 25.3121 3.20006C23.7521 2.50512 22.0117 2.32358 20.3418 2.6816C19.3934 1.62649 18.184 0.839471 16.8352 0.399557C15.4864 -0.0403574 14.0456 -0.117682 12.6575 0.175346C11.2694 0.468374 9.98276 1.12144 8.92684 2.06898C7.87093 3.01652 7.08288 4.22517 6.64181 5.5736C5.5293 5.80169 4.47829 6.26461 3.55902 6.93141C2.63974 7.59822 1.87338 8.45356 1.31114 9.44027C0.451077 10.9186 0.0835119 12.6323 0.2616 14.3333C0.439688 16.0344 1.1542 17.6347 2.30181 18.9029C1.94244 19.9799 1.8172 21.1211 1.93447 22.2504C2.05174 23.3796 2.40882 24.4708 2.98181 25.4509C3.83365 26.9323 5.13385 28.105 6.69501 28.7999C8.25617 29.4948 9.99766 29.6761 11.6685 29.3176C12.4221 30.1667 13.3482 30.8452 14.3849 31.3078C15.4217 31.7704 16.5452 32.0065 17.6805 32.0003C19.3921 32.0018 21.0599 31.4595 22.4431 30.4515C23.8264 29.4435 24.8536 28.022 25.3765 26.3923C26.4886 26.1636 27.5392 25.7004 28.4581 25.0337C29.3771 24.3669 30.1434 23.5119 30.7058 22.5256C31.5557 21.0495 31.917 19.3425 31.7381 17.6487C31.5592 15.9548 30.8493 14.3609 29.7098 13.0949ZM17.6805 29.9069C16.2791 29.9093 14.9216 29.4184 13.8458 28.5203L14.0338 28.4123L20.4058 24.7349C20.5641 24.6418 20.6955 24.5092 20.7872 24.35C20.8788 24.1908 20.9275 24.0106 20.9285 23.8269V14.8443L23.6218 16.4016C23.6351 16.4083 23.6467 16.4181 23.6555 16.4302C23.6643 16.4422 23.6701 16.4562 23.6725 16.4709V23.9149C23.669 25.503 23.0365 27.0251 21.9136 28.148C20.7906 29.271 19.2686 29.9034 17.6805 29.9069ZM4.80048 24.4056C4.09714 23.1917 3.84454 21.7687 4.08714 20.3869L4.27648 20.5003L10.6538 24.1789C10.8115 24.2714 10.991 24.3201 11.1738 24.3201C11.3566 24.3201 11.5361 24.2714 11.6938 24.1789L19.4845 19.6869V22.7963C19.4839 22.8125 19.4797 22.8284 19.472 22.8427C19.4644 22.857 19.4536 22.8694 19.4405 22.8789L12.9871 26.6003C11.6101 27.393 9.97477 27.6072 8.44 27.1958C6.90523 26.7843 5.59634 25.7809 4.80048 24.4056ZM3.12048 10.5283C3.82844 9.3064 4.94596 8.3745 6.27514 7.8976V15.4669C6.27282 15.6497 6.3196 15.8298 6.4106 15.9883C6.5016 16.1469 6.63348 16.2781 6.79248 16.3683L14.5458 20.8416L11.8525 22.3989C11.8379 22.4066 11.8216 22.4107 11.8051 22.4107C11.7886 22.4107 11.7724 22.4066 11.7578 22.3989L5.31781 18.6843C3.94279 17.8878 2.93947 16.5789 2.52762 15.0442C2.11576 13.5095 2.32895 11.8741 3.12048 10.4963V10.5283ZM25.2498 15.6683L17.4725 11.1523L20.1591 9.60027C20.1737 9.59256 20.19 9.58853 20.2065 9.58853C20.223 9.58853 20.2392 9.59256 20.2538 9.60027L26.6938 13.3216C27.6791 13.8895 28.4824 14.726 29.0099 15.7335C29.5374 16.741 29.7673 17.8777 29.6728 19.011C29.5782 20.1442 29.1632 21.2272 28.4761 22.1334C27.789 23.0395 26.8582 23.7314 25.7925 24.1283V16.5576C25.7869 16.375 25.7339 16.1971 25.6388 16.0411C25.5437 15.8852 25.4096 15.7567 25.2498 15.6683ZM27.9298 11.6376L27.7418 11.5243L21.3765 7.81493C21.2178 7.72188 21.0371 7.67282 20.8531 7.67282C20.6692 7.67282 20.4885 7.72188 20.3298 7.81493L12.5458 12.3069V9.19627C12.5442 9.18061 12.5468 9.1648 12.5534 9.1505C12.5599 9.13619 12.5702 9.12391 12.5831 9.11493L19.0231 5.39893C20.0103 4.83083 21.1387 4.55542 22.2766 4.6049C23.4144 4.65437 24.5147 5.02668 25.4488 5.67831C26.3829 6.32994 27.1122 7.23398 27.5516 8.28477C27.9909 9.33556 28.1221 10.4897 27.9298 11.6123V11.6376ZM11.0765 17.1509L8.38314 15.5989C8.3696 15.5908 8.35803 15.5798 8.34926 15.5666C8.3405 15.5535 8.33477 15.5386 8.33248 15.5229V8.10027C8.33471 6.96173 8.66084 5.84733 9.27278 4.88722C9.88471 3.92711 10.7572 3.16093 11.7883 2.67816C12.8194 2.19538 13.9666 2.01595 15.0959 2.16082C16.2252 2.30568 17.2899 2.76886 18.1658 3.49627L17.9765 3.60293L11.6058 7.28027C11.4472 7.3732 11.3156 7.50576 11.2237 7.66495C11.1318 7.82414 11.0829 8.00448 11.0818 8.18827L11.0765 17.1509ZM12.5391 13.9976L16.0085 11.9976L19.4845 13.9976V17.9963L16.0218 19.9963L12.5458 17.9963L12.5391 13.9976Z" fill="#1C1917" fill-opacity="0.9"/>
</g>
<defs>
<clipPath id="clip0_345_473">
<rect width="32" height="32" fill="white"/>
</clipPath>
</defs>
</svg>
