<svg width="32" height="32" viewBox="0 0 32 32" fill="none" xmlns="http://www.w3.org/2000/svg">
<path d="M11.9307 11.7303V9.82366C12.1188 9.80969 12.3073 9.80169 12.496 9.79966C17.7253 9.63433 21.1533 14.2983 21.1533 14.2983C21.1533 14.2983 17.4547 19.433 13.4867 19.433C12.956 19.433 12.4373 19.3503 11.9427 19.1863V13.3917C13.98 13.6383 14.392 14.5343 15.6053 16.5717L18.3253 14.2863C18.3253 14.2863 16.336 11.6837 12.992 11.6837C12.6376 11.6757 12.283 11.6913 11.9307 11.7303ZM11.9307 5.41699V8.26766L12.496 8.23166C19.7627 7.98499 24.5093 14.1917 24.5093 14.1917C24.5093 14.1917 19.0693 20.8103 13.4027 20.8103C12.9093 20.8103 12.4253 20.7637 11.9427 20.681V22.4477C12.3427 22.4943 12.756 22.5303 13.156 22.5303C18.432 22.5303 22.2493 19.833 25.9467 16.653C26.5587 17.1477 29.0667 18.337 29.5867 18.8557C26.076 21.7997 17.8907 24.1677 13.2493 24.1677C12.8027 24.1677 12.3787 24.1437 11.9547 24.097V26.5823H32V5.41699H11.9307ZM11.9307 19.185V20.693C7.05467 19.821 5.7 14.7463 5.7 14.7463C5.7 14.7463 8.044 12.1543 11.9307 11.7303V13.3797H11.92C9.88267 13.1317 8.28 15.0397 8.28 15.0397C8.28 15.0397 9.18667 18.2557 11.932 19.1863M3.27467 14.533C3.27467 14.533 6.16 10.2703 11.9413 9.82233V8.26766C5.53733 8.78633 0 14.2037 0 14.2037C0 14.2037 3.13333 23.273 11.9307 24.097V22.4477C5.47733 21.6477 3.27467 14.533 3.27467 14.533Z" fill="#1C1917" fill-opacity="0.9"/>
</svg>
