<svg width="32" height="32" viewBox="0 0 32 32" fill="none" xmlns="http://www.w3.org/2000/svg">
<g clip-path="url(#clip0_345_486)">
<path d="M16.0003 30.6667C10.8457 30.6667 6.66699 26.1893 6.66699 20.6667C6.66699 17.836 7.87633 15.352 10.0003 13.3333C12.0003 11.3333 13.3337 8 12.667 4C16.0003 5.33333 18.667 8.66667 19.3337 12.6667C20.0003 10.6667 21.3337 8.66667 22.667 7.33333C24.0003 10.6667 23.3337 14 22.0003 16C24.115 17.9427 25.3337 20.344 25.3337 23.3333C25.3337 28.856 21.155 33.3333 16.0003 33.3333V30.6667ZM16.0003 28C19.6803 28 22.667 24.7173 22.667 20.6667C22.667 18.556 21.7737 16.604 20.2403 15.0933L19.3337 14.1867L19.867 12.96C20.347 11.8533 20.6137 10.6667 20.667 9.46667C19.2803 10.5067 18.187 12.08 17.8137 13.96L17.3337 16.32L15.6003 14.68C14.0537 13.3067 13.2003 11.44 13.067 9.44C12.4537 12.2667 13.2403 15.1067 15.0937 17.1333L16.147 18.28L14.907 19.2267C14.0161 19.8282 13.2857 20.6382 12.7791 21.5862C12.2725 22.5343 12.0052 23.5918 12.0003 24.6667C12.0003 27.384 13.6537 29.3333 16.0003 29.3333V28Z" fill="#1C1917" fill-opacity="0.9"/>
</g>
<defs>
<clipPath id="clip0_345_486">
<rect width="32" height="32" fill="white"/>
</clipPath>
</defs>
</svg>
