<svg width="32" height="32" viewBox="0 0 32 32" fill="none" xmlns="http://www.w3.org/2000/svg">
<path d="M16.0071 0L6.60308 9.404C5.36748 10.6271 4.38661 12.083 3.7172 13.6875C3.04779 15.2921 2.70312 17.0134 2.70312 18.752C2.70312 20.4906 3.04779 22.2119 3.7172 23.8165C4.38661 25.421 5.36748 26.8769 6.60308 28.1C7.82626 29.3354 9.2822 30.3162 10.8867 30.9855C12.4913 31.6548 14.2125 31.9994 15.9511 31.9994C17.6896 31.9994 19.4109 31.6548 21.0154 30.9855C22.6199 30.3162 24.0759 29.3354 25.2991 28.1C30.6111 22.9 30.6137 14.4933 25.4124 9.40267L23.0871 11.7267C26.9591 15.6 26.9591 21.9053 23.0871 25.7773C19.2151 29.6493 12.9084 29.6493 9.03641 25.7773C5.16441 21.9053 5.16441 15.5987 9.03641 11.7267L15.2324 5.532L16.0084 4.64533L16.0071 0ZM20.7644 5.19867C20.2952 5.19867 19.8451 5.38508 19.5133 5.71689C19.1815 6.04871 18.9951 6.49874 18.9951 6.968C18.9949 7.20046 19.0405 7.43068 19.1294 7.6455C19.2182 7.86032 19.3485 8.05553 19.5128 8.21997C19.6771 8.38441 19.8723 8.51486 20.087 8.60386C20.3018 8.69286 20.5319 8.73867 20.7644 8.73867C20.9969 8.73867 21.2271 8.69286 21.4418 8.60386C21.6566 8.51486 21.8517 8.38441 22.016 8.21997C22.1803 8.05553 22.3106 7.86032 22.3994 7.6455C22.4883 7.43068 22.5339 7.20046 22.5337 6.968C22.5334 6.49897 22.3468 6.04928 22.015 5.71775C21.6833 5.38623 21.2334 5.2 20.7644 5.2V5.19867Z" fill="#1C1917" fill-opacity="0.9"/>
</svg>
