<svg width="2060" height="388" viewBox="0 0 2060 388" fill="none" xmlns="http://www.w3.org/2000/svg">
  <g transform="scale(0.86222)">
    <path fill-rule="evenodd" clip-rule="evenodd" d="M228.893 152.697C227.62 154.467 209.97 166.186 206.612 168.533L184.821 183.908C184.759 183.797 184.574 184.119 184.438 184.21L140.278 214.12C117.921 229.201 67.942 263.319 41.1101 265.105C17.6829 266.664 3.70271 251.549 1.10171 230.334C0.263212 245.797 4.54091 275.427 16.4725 286.725C17.7322 287.918 18.1818 288.496 19.5303 289.823C21.8567 292.114 27.3964 295.603 30.9703 296.708C44.4678 301.372 56.2831 299.716 69.9759 295.453C75.5372 293.721 81.5282 291.088 86.3962 288.961C92.212 286.421 97.1256 283.329 102.018 280.993C110.756 277.946 165.072 243.169 171.766 238.891L239.725 194.514C242.602 191.583 277.959 169.301 285.484 163.488C286.541 162.671 285.99 162.955 287.198 162.229C289.124 161.513 293.282 158.442 295.359 157.115C298.231 155.28 300.664 153.634 303.501 151.828C309.19 148.208 314.078 145.045 319.899 141.371C328.79 135.759 344.922 126.128 354.28 122.023C374.683 113.071 395.031 105.657 416.969 120.159C421.134 122.913 429.379 129.614 430.862 133.094C433.761 134.72 440.642 146.02 442.779 149.735C446.042 155.406 450.106 162.974 452.546 169.425L457.285 181.727C456.582 171.847 448.744 150.995 445.191 142.277C440.13 129.855 433.51 118.716 427.005 108.422C425.191 105.552 423.779 103.365 421.893 100.665C418.717 96.1171 413.956 90.3892 409.826 87.0012C395.08 74.9009 380.471 70.9602 360.134 76.3166C338.69 81.9652 309.838 99.4186 291.515 111.294L228.893 152.697Z" fill="#FDFDFD"/>
    <path fill-rule="evenodd" clip-rule="evenodd" d="M287.789 277.041C286.135 278.709 274.241 284.618 271.198 286.275L238.457 305.004C233.713 307.836 226.629 312.722 221.894 314.637C221.329 315.526 186.093 337.135 181.895 339.677C144.116 362.564 95.1445 395.559 51.5083 364.174C49.7428 362.904 43.9738 357.792 43.1279 356.323C43.995 359.91 56.0392 373.129 59.4549 376.372C68.2015 384.675 72.3055 385.587 81.2919 391.179C93.4769 395.136 98.7145 398.488 114.411 397.858C126.559 397.37 136.903 394.844 147.042 391.048C156.264 387.594 166.262 383.005 174.402 378.653L200.713 364.525L272.015 325.133C275.602 323.152 294.282 313.13 296.867 312.623C298.722 310.724 326.781 297.323 331.545 295.136C343.565 289.618 354.956 284.395 367.156 279.266C382.276 272.91 432.627 251.662 447.931 266.817C452.86 269.964 454.713 278.885 454.321 285.498L454.592 288.684C456.574 278.479 462.687 260.78 461.885 249.925C461.627 238.229 461.244 235.828 455.764 228.009C448.724 222.904 446.15 220.177 434.502 219.927C425.458 219.734 416.969 221.228 408.633 223.382C393.572 227.274 379.509 233.274 365.977 238.922C349.152 245.946 323.423 258.275 306.904 267.167C301.957 269.83 292.525 275.428 287.789 277.041Z" fill="#FDFDFD"/>
    <path fill-rule="evenodd" clip-rule="evenodd" d="M212.629 40.3727C211.797 41.1604 212.5 40.6919 211.065 41.4652C208.063 43.0826 186.154 50.4385 174.258 56.8048C167.888 58.4362 138.101 74.7983 130.879 78.7892C116.444 86.7659 103.015 95.129 89.5706 103.525C76.0964 111.939 63.7407 120.955 49.3112 128.768C41.0559 133.238 28.5588 138.234 31.9127 121.899C34.2133 110.692 39.437 105.085 41.9956 99.4147L33.6793 111.422C26.7724 121.923 14.9239 144.606 15.4987 157.034C16.1632 161.398 17.801 163.406 22.6182 163.651C34.2459 164.246 60.9429 148.515 71.7761 142.829C77.8967 139.617 84.5204 135.412 90.1542 132.956L127.372 112.788C140.348 106.317 152.794 99.6528 165.941 93.1388C177.113 87.6033 238.498 58.5068 246.973 58.7865C249.817 56.3436 267.712 52.4075 272.521 51.4003C292.455 47.2254 310.523 46.3801 330.821 49.5853C335.461 50.3175 354.514 53.8622 356.651 55.7903C363.85 56.9571 377.687 63.5414 383.716 66.6501C397.591 73.8051 403.926 80.287 406.698 81.7968C402.45 74.5664 383.919 59.6021 376.763 54.5867C371.356 50.7974 365.451 47.353 358.781 44.041C351.892 40.6199 342.027 37.0757 338.993 35.5093C336.055 34.948 332.162 33.3717 328.903 32.4807C325.703 31.6068 322.411 30.6751 319.206 29.9015C316.194 29.1744 298.382 26.6139 298.008 26.4347C290.27 26.926 281.911 26.0441 273.565 26.647C258.642 27.7251 246.001 30.7774 231.805 34.8635C228.194 35.9033 215.061 40.477 212.629 40.3727Z" fill="#FDFDFD"/>
    <path fill-rule="evenodd" clip-rule="evenodd" d="M287.198 162.229C285.989 162.955 285.99 162.671 287.198 162.229C289.124 161.513 293.282 158.442 295.359 157.115C298.231 155.28 300.664 153.634 303.501 151.828C309.19 148.208 314.078 145.045 319.899 141.371C328.79 135.759 344.922 126.128 354.28 122.023C374.683 113.071 395.031 105.657 416.969 120.159C421.134 122.913 429.379 129.614 430.862 133.094C433.761 134.72 440.642 146.02 442.779 149.735C446.042 155.406 450.106 162.974 452.546 169.425L457.285 181.727C456.582 171.847 448.744 150.995 445.191 142.277C440.13 129.855 433.51 118.716 427.005 108.422C425.191 105.552 423.779 103.365 421.893 100.665C418.717 96.1171 413.956 90.3892 409.826 87.0012C395.08 74.9009 380.471 70.9602 360.134 76.3166C338.69 81.9652 309.838 99.4186 291.515 111.294L228.893 152.697ZM287.198 162.229C285.989 162.955 285.99 162.671 287.198 162.229Z" fill="#878685"/>
    <path fill-rule="evenodd" clip-rule="evenodd" d="M102.019 280.993C97.126 283.329 92.2124 286.421 86.3966 288.961C81.5286 291.088 75.5376 293.721 69.9763 295.453C56.2835 299.716 44.4682 301.372 30.9707 296.708L32.358 298.14C24.2725 301.672 21.6496 315.028 25.6563 326.235C28.0391 332.902 35.6456 346.857 39.4548 351.067C36.949 342.622 34.6688 336.518 39.7785 328.51C49.9575 312.559 92.5012 312.358 109.921 312.303C119.919 312.272 220.867 314.179 221.895 314.637C226.629 312.722 233.713 307.836 238.458 305.004L271.198 286.275C274.241 284.618 286.135 278.709 287.79 277.041C280.74 278.543 144.547 280.559 125.014 281.212C123.085 281.277 104.83 282.271 103.298 281.751C101.597 281.172 103.192 282.35 102.019 280.993Z" fill="#777676"/>
    <path fill-rule="evenodd" clip-rule="evenodd" d="M390.19 351.39C388.593 353.73 363.066 368.006 358.737 370.46L326.372 388.254C310.266 396.114 298.405 402.376 280.987 410.225C233.751 431.51 195.848 443.739 143.401 429.015C131.626 425.709 127.021 423.17 118.498 420.474C118.874 421.23 118.215 420.454 119.161 421.308L122.033 422.911C123.508 423.619 124.785 424.236 126.148 424.926C145.755 434.844 168.671 442.703 190.589 446.148C245.083 454.711 263.192 442.945 307.962 423.19C313.693 420.66 319.078 417.776 324.543 415.148C329.996 412.524 335.362 409.966 340.498 407.07C350.948 401.177 361.89 395.739 371.706 389.605C376.952 386.327 382.108 383.399 387.23 380.505C390.011 378.934 392.46 377.572 395.226 376.192C402.148 372.737 407.82 371.872 401.152 380.478C402.383 378.9 403.627 378.108 405.416 376.286C412.869 368.692 426.068 350.307 431.456 341.345C437.3 331.625 451.409 304.338 452.717 293.569C450.802 301.481 434.207 326.035 428.425 329.338C424.942 331.327 422.157 332.59 418.696 334.721C413.851 337.703 392.42 351.065 390.19 351.39Z" fill="#777676"/>
    <path fill-rule="evenodd" clip-rule="evenodd" d="M200.713 364.525L174.402 378.653C166.262 383.005 156.264 387.594 147.042 391.048C136.903 394.844 126.559 397.37 114.411 397.858C98.7146 398.488 93.477 395.136 81.292 391.179C84.4594 399.538 104.444 414.201 110.985 416.542C108.997 414.417 103.575 410.393 107.089 406.463C112.347 400.581 139.123 399.499 146.831 398.946C186.132 396.126 228.174 395.327 268.287 392.607C274.643 392.176 325.291 387.628 326.372 388.254L358.737 370.46C363.066 368.006 388.593 353.73 390.19 351.39C367.966 356.347 369.074 356.067 346.091 358.313C330.303 359.856 313.813 360.627 297.93 361.317C290.111 361.658 211.112 365.432 202.799 365.015C200.641 364.908 201.872 365.284 200.713 364.525Z" fill="#777676"/>
    <path fill-rule="evenodd" clip-rule="evenodd" d="M15.4983 157.034C11.6319 160.99 6.26875 180.645 4.78035 187.693C2.42325 198.848 0.472748 213.094 1.14965 224.986C0.117848 216.691 6.49755 196.204 12.4012 186.969C19.1238 176.452 28.5128 168.482 40.8894 165.158C51.0048 162.442 60.8482 161.672 71.877 162.433C91.6273 163.797 110.703 167.336 129.732 171.312C138.943 173.237 148.114 175.12 157.364 177.273C161.836 178.314 166.662 179.266 171.148 180.327L181.339 182.371C181.339 182.371 181.842 182.476 183.019 182.855C184.789 183.875 183.388 182.528 184.438 184.21C184.573 184.119 184.758 183.797 184.821 183.908L206.611 168.533C209.97 166.186 227.62 154.467 228.893 152.697C225.781 153.424 169.907 142.894 161.086 141.529C149.606 139.752 137.854 137.999 126.239 136.628C121.744 136.098 91.1197 133.808 90.1539 132.956C84.5201 135.411 77.8963 139.617 71.7757 142.829C60.9426 148.515 34.2455 164.246 22.6178 163.651C17.8006 163.406 16.1628 161.398 15.4983 157.034Z" fill="#878685"/>
    <path fill-rule="evenodd" clip-rule="evenodd" d="M296.867 312.623C341.621 308.465 377.878 308.698 419.891 287.797C425.481 285.016 430.418 281.602 434.93 278.221L444.596 269.413C447.326 265.924 446.126 266.826 447.932 266.818C432.628 251.662 382.277 272.91 367.156 279.266C354.956 284.395 343.565 289.618 331.545 295.136C326.781 297.323 298.722 310.724 296.867 312.623Z" fill="#777676"/>
    <path fill-rule="evenodd" clip-rule="evenodd" d="M174.258 56.8048C186.154 50.4385 208.063 43.0826 211.065 41.4652C212.501 40.6919 211.797 41.1604 212.629 40.3727C203.839 38.853 168.573 40.009 158.084 40.5887C128.376 42.2314 96.2094 48.8304 72.7967 66.0472C62.9392 73.2954 58.6569 78.2115 51.4742 86.705C50.0007 88.4474 46.1745 92.8216 45.8525 94.7055L56.2196 84.7275C85.4893 59.4238 131.694 56.6747 169.252 55.8637C174.175 55.7572 173.258 55.7917 174.258 56.8048Z" fill="#878685"/>
    <path fill-rule="evenodd" clip-rule="evenodd" d="M246.974 58.7865C253.151 57.327 314.064 64.248 332.089 64.201C340.707 64.1792 352.93 63.6426 354.466 55.3229L356.651 55.7903C354.515 53.8622 335.462 50.3175 330.821 49.5853C310.524 46.3801 292.455 47.2254 272.521 51.4003C267.712 52.4075 249.818 56.3436 246.974 58.7865Z" fill="#878685"/>
    <path fill-rule="evenodd" clip-rule="evenodd" d="M298.007 26.4347C298.382 26.6139 316.194 29.1744 319.206 29.9015C322.41 30.6751 325.703 31.6068 328.903 32.4807C332.162 33.3717 336.055 34.948 338.992 35.5093C335.953 30.2076 314.23 18.3432 308.664 15.792C302.466 12.9506 276.558 4.91582 269.53 4.57202L266.857 4.96063C266.313 4.91183 264.833 4.60852 263.936 4.48752C262.022 4.22982 259.961 4.10884 257.848 3.88544C250.519 3.11014 221.556 0.725929 217.992 3.09433C237.376 2.47493 264.137 9.54704 282.078 16.6824C289.158 19.4981 293.478 23.0697 299.028 26.1459L298.007 26.4347Z" fill="#878685"/>
    <path fill-rule="evenodd" clip-rule="evenodd" d="M217.993 3.0943C221.557 0.725899 250.52 3.11011 257.849 3.88541C259.961 4.10881 262.022 4.22979 263.936 4.48749C264.833 4.60849 266.313 4.9118 266.858 4.9606L269.53 4.57199C266.774 4.49399 251.063 1.9063 243.127 1.42661C190.881 -1.7295 145.602 12.7476 103.043 40.9113C99.7606 43.0832 97.4716 44.7457 94.2486 47.2209C92.7746 48.3531 91.6597 49.1689 90.0998 50.3353C88.473 51.5528 86.8689 52.4763 85.7441 54.0513C88.2009 53.0923 90.4085 51.1905 92.844 49.7233C119.123 33.8924 150.857 20.0579 180.301 11.3065C189.399 8.60249 208.499 3.1654 217.993 3.0943Z" fill="#FDFDFD"/>
    <path fill-rule="evenodd" clip-rule="evenodd" d="M251.665 448.275C276.733 448.722 314.399 437.204 334.186 428.148C346.47 422.525 357.12 416.64 367.236 409.733C372.746 405.971 392.475 390.934 395.356 386.324C392.676 388.114 390.651 389.96 387.992 391.885C368.878 405.728 353.109 414.895 330.918 424.881C305.289 436.414 279.692 443.872 251.665 448.275Z" fill="#FDFDFD"/>
    <path fill-rule="evenodd" clip-rule="evenodd" d="M455.764 228.009C461.244 235.828 461.627 238.229 461.885 249.925C463.943 245.774 463.418 230.261 463.323 224.616C463.254 220.583 462.909 216.313 462.53 212.299C462.334 210.223 462.139 208.222 461.945 206.152C461.871 205.357 461.808 203.822 461.689 203.129L460.512 200.116C460.069 212.553 460.015 217.182 455.764 228.009Z" fill="#878685"/>
  </g>
  <path d="M561.5 375C540.5 375 522.333 371 507 363C492 355 480.333 343.5 472 328.5C464 313.5 460 295.667 460 275H502.5C502.5 286.667 504.333 297.333 508 307C512 316.333 518.167 323.833 526.5 329.5C535.167 334.833 546.667 337.5 561 337.5C575 337.5 586 334.833 594 329.5C602.333 324.167 608.167 317 611.5 308C615.167 298.667 617 288.167 617 276.5V19H659V276.5C659 307.833 650.333 332.167 633 349.5C616 366.5 592.167 375 561.5 375ZM775.445 375C755.779 375 739.279 371.5 725.945 364.5C712.612 357.5 702.612 348.167 695.945 336.5C689.612 324.833 686.445 312.167 686.445 298.5C686.445 281.5 690.779 267.167 699.445 255.5C708.445 243.833 720.945 235 736.945 229C753.279 222.667 772.445 219.5 794.445 219.5H861.445C861.445 203.167 858.945 189.667 853.945 179C848.945 168.333 841.779 160.5 832.445 155.5C823.112 150.167 811.945 147.5 798.945 147.5C782.612 147.5 768.445 151.667 756.445 160C744.445 168.333 737.112 181.167 734.445 198.5H691.445C693.445 180.5 699.279 165.333 708.945 153C718.945 140.667 731.612 131.333 746.945 125C762.612 118.333 779.945 115 798.945 115C822.612 115 842.112 119.333 857.445 128C873.112 136.333 884.612 148.167 891.945 163.5C899.612 178.5 903.445 196.167 903.445 216.5V369H868.445L864.445 326.5H862.445C857.779 334.5 852.279 341.5 845.945 347.5C839.945 353.5 833.279 358.5 825.945 362.5C818.612 366.5 810.612 369.5 801.945 371.5C793.612 373.833 784.779 375 775.445 375ZM782.945 339.5C795.612 339.5 806.779 337.167 816.445 332.5C826.112 327.5 834.279 320.833 840.945 312.5C847.612 304.167 852.612 294.833 855.945 284.5C859.612 273.833 861.445 263 861.445 252H797.945C781.612 252 768.445 254 758.445 258C748.445 261.667 741.279 266.833 736.945 273.5C732.612 280.167 730.445 287.833 730.445 296.5C730.445 305.167 732.445 312.833 736.445 319.5C740.779 325.833 746.779 330.833 754.445 334.5C762.445 337.833 771.945 339.5 782.945 339.5ZM1026.96 375C1007.29 375 989.624 371.667 973.957 365C958.29 358 945.624 348.333 935.957 336C926.624 323.333 920.79 308.5 918.457 291.5H961.457C963.457 299.833 966.79 308 971.457 316C976.457 323.667 983.457 330 992.457 335C1001.79 340 1013.46 342.5 1027.46 342.5C1039.46 342.5 1049.29 340.833 1056.96 337.5C1064.62 333.833 1070.29 329.167 1073.96 323.5C1077.96 317.5 1079.96 311 1079.96 304C1079.96 295.333 1077.46 288.333 1072.46 283C1067.46 277.667 1060.12 273.167 1050.46 269.5C1041.12 265.5 1029.96 261.667 1016.96 258C1006.96 255 996.79 251.833 986.457 248.5C976.124 244.833 966.624 240.5 957.957 235.5C949.624 230.5 942.79 224 937.457 216C932.457 208 929.957 198 929.957 186C929.957 172.667 933.624 160.667 940.957 150C948.29 139.333 958.624 130.833 971.957 124.5C985.624 118.167 1001.62 115 1019.96 115C1046.29 115 1067.79 121.5 1084.46 134.5C1101.46 147.5 1111.29 166.333 1113.96 191H1072.46C1071.12 177 1065.79 166.333 1056.46 159C1047.46 151.333 1035.12 147.5 1019.46 147.5C1004.12 147.5 992.29 150.833 983.957 157.5C975.957 164.167 971.957 172.5 971.957 182.5C971.957 189.167 973.957 194.667 977.957 199C981.957 203.333 988.29 207.167 996.957 210.5C1005.96 213.5 1017.29 217.167 1030.96 221.5C1046.29 226.167 1060.79 231.333 1074.46 237C1088.46 242.667 1099.79 250.167 1108.46 259.5C1117.46 268.5 1121.96 280.833 1121.96 296.5C1122.29 311.833 1118.46 325.5 1110.46 337.5C1102.79 349.167 1091.79 358.333 1077.46 365C1063.46 371.667 1046.62 375 1026.96 375ZM1144.65 369V19H1186.65V162.5H1188.65C1198.65 146.833 1210.82 135 1225.15 127C1239.82 119 1255.48 115 1272.15 115C1291.15 115 1307.82 119 1322.15 127C1336.48 134.667 1347.48 146.667 1355.15 163C1363.15 179 1367.15 199.333 1367.15 224V369H1325.65V228.5C1325.65 202.833 1320.32 183.5 1309.65 170.5C1299.32 157.5 1283.82 151 1263.15 151C1248.82 151 1235.82 154.5 1224.15 161.5C1212.48 168.5 1203.32 178.667 1196.65 192C1189.98 205 1186.65 221.167 1186.65 240.5V369H1144.65ZM1510.84 375C1487.51 375 1466.51 369.667 1447.84 359C1429.18 348.333 1414.34 333.333 1403.34 314C1392.68 294.333 1387.34 271.333 1387.34 245C1387.34 218.667 1392.84 195.833 1403.84 176.5C1414.84 156.833 1429.68 141.667 1448.34 131C1467.34 120.333 1488.51 115 1511.84 115C1535.18 115 1556.18 120.333 1574.84 131C1593.51 141.667 1608.18 156.833 1618.84 176.5C1629.84 195.833 1635.34 218.667 1635.34 245C1635.34 271.333 1629.84 294.333 1618.84 314C1607.84 333.333 1592.84 348.333 1573.84 359C1555.18 369.667 1534.18 375 1510.84 375ZM1510.84 342.5C1525.18 342.5 1538.51 339 1550.84 332C1563.18 324.667 1573.18 313.833 1580.84 299.5C1588.51 285.167 1592.34 267 1592.34 245C1592.34 223 1588.51 204.833 1580.84 190.5C1573.51 175.833 1563.68 165 1551.34 158C1539.01 151 1525.84 147.5 1511.84 147.5C1497.84 147.5 1484.51 151 1471.84 158C1459.51 165 1449.51 175.833 1441.84 190.5C1434.18 204.833 1430.34 223 1430.34 245C1430.34 267 1434.18 285.167 1441.84 299.5C1449.51 313.833 1459.34 324.667 1471.34 332C1483.68 339 1496.84 342.5 1510.84 342.5ZM1657.79 369V121H1694.79L1698.79 162H1700.79C1709.13 146.333 1720.13 134.667 1733.79 127C1747.79 119 1762.96 115 1779.29 115C1792.29 115 1803.96 117 1814.29 121C1824.96 124.667 1834.13 130.167 1841.79 137.5C1849.46 144.833 1855.63 154.167 1860.29 165.5H1862.29C1871.29 148.833 1882.79 136.333 1896.79 128C1910.79 119.333 1927.96 115 1948.29 115C1966.63 115 1982.79 119 1996.79 127C2010.79 134.667 2021.79 146.667 2029.79 163C2037.79 179 2041.79 199.333 2041.79 224V369H2000.29V228.5C2000.29 202.833 1995.13 183.5 1984.79 170.5C1974.46 157.5 1958.79 151 1937.79 151C1924.79 151 1913.29 153.667 1903.29 159C1893.29 164.333 1885.29 172.833 1879.29 184.5C1873.63 195.833 1870.79 210.5 1870.79 228.5V369H1828.79V228.5C1828.79 202.833 1823.63 183.5 1813.29 170.5C1802.96 157.5 1788.13 151 1768.79 151C1757.13 151 1745.96 154.5 1735.29 161.5C1724.96 168.5 1716.46 178.667 1709.79 192C1703.13 205 1699.79 221.167 1699.79 240.5V369H1657.79Z" fill="#FDFDFD"/>
</svg>
