<svg width="465" height="450" viewBox="0 0 465 450" fill="none" xmlns="http://www.w3.org/2000/svg">
<path fill-rule="evenodd" clip-rule="evenodd" d="M228.893 152.697C227.62 154.467 209.97 166.186 206.612 168.533L184.821 183.908C184.759 183.797 184.574 184.119 184.438 184.21L140.278 214.12C117.921 229.201 67.942 263.319 41.1101 265.105C17.6829 266.664 3.70271 251.549 1.10171 230.334C0.263212 245.797 4.54091 275.427 16.4725 286.725C17.7322 287.918 18.1818 288.496 19.5303 289.823C21.8567 292.114 27.3964 295.603 30.9703 296.708C44.4678 301.372 56.2831 299.716 69.9759 295.453C75.5372 293.721 81.5282 291.088 86.3962 288.961C92.212 286.421 97.1256 283.329 102.018 280.993C110.756 277.946 165.072 243.169 171.766 238.891L239.725 194.514C242.602 191.583 277.959 169.301 285.484 163.488C286.541 162.671 285.99 162.955 287.198 162.229C289.124 161.513 293.282 158.442 295.359 157.115C298.231 155.28 300.664 153.634 303.501 151.828C309.19 148.208 314.078 145.045 319.899 141.371C328.79 135.759 344.922 126.128 354.28 122.023C374.683 113.071 395.031 105.657 416.969 120.159C421.134 122.913 429.379 129.614 430.862 133.094C433.761 134.72 440.642 146.02 442.779 149.735C446.042 155.406 450.106 162.974 452.546 169.425L457.285 181.727C456.582 171.847 448.744 150.995 445.191 142.277C440.13 129.855 433.51 118.716 427.005 108.422C425.191 105.552 423.779 103.365 421.893 100.665C418.717 96.1171 413.956 90.3892 409.826 87.0012C395.08 74.9009 380.471 70.9602 360.134 76.3166C338.69 81.9652 309.838 99.4186 291.515 111.294L228.893 152.697Z" fill="#FDFDFD"/>
<path fill-rule="evenodd" clip-rule="evenodd" d="M287.789 277.041C286.135 278.709 274.241 284.618 271.198 286.275L238.457 305.004C233.713 307.836 226.628 312.722 221.894 314.637C221.329 315.526 186.093 337.135 181.895 339.677C144.116 362.564 95.1445 395.559 51.5083 364.174C49.7428 362.904 43.9738 357.792 43.1279 356.323C43.995 359.91 56.0392 373.129 59.4549 376.372C68.2015 384.675 72.3055 385.587 81.2919 391.179C93.4769 395.136 98.7145 398.488 114.411 397.858C126.559 397.37 136.903 394.844 147.042 391.048C156.264 387.594 166.262 383.005 174.402 378.653L200.713 364.525L272.015 325.133C275.602 323.152 294.282 313.13 296.867 312.623C298.722 310.724 326.781 297.323 331.545 295.136C343.565 289.618 354.956 284.395 367.156 279.266C382.276 272.91 432.627 251.662 447.931 266.817C452.86 269.964 454.713 278.885 454.321 285.498L454.592 288.684C456.574 278.479 462.687 260.78 461.885 249.925C461.627 238.229 461.244 235.828 455.764 228.009C448.724 222.904 446.15 220.177 434.502 219.927C425.458 219.734 416.969 221.228 408.633 223.382C393.572 227.274 379.509 233.274 365.977 238.922C349.152 245.946 323.423 258.275 306.904 267.167C301.957 269.83 292.525 275.428 287.789 277.041Z" fill="#FDFDFD"/>
<path fill-rule="evenodd" clip-rule="evenodd" d="M212.629 40.3727C211.797 41.1604 212.5 40.6919 211.065 41.4652C208.063 43.0826 186.154 50.4385 174.258 56.8048C167.888 58.4362 138.101 74.7983 130.879 78.7892C116.444 86.7659 103.015 95.129 89.5706 103.525C76.0964 111.939 63.7407 120.955 49.3112 128.768C41.0559 133.238 28.5588 138.234 31.9127 121.899C34.2133 110.692 39.437 105.085 41.9956 99.4147L33.6793 111.422C26.7724 121.923 14.9239 144.606 15.4987 157.034C16.1632 161.398 17.801 163.406 22.6182 163.651C34.2459 164.246 60.9429 148.515 71.7761 142.829C77.8967 139.617 84.5204 135.412 90.1542 132.956L127.372 112.788C140.348 106.317 152.794 99.6528 165.941 93.1388C177.113 87.6033 238.498 58.5068 246.973 58.7865C249.817 56.3436 267.712 52.4075 272.521 51.4003C292.455 47.2254 310.523 46.3801 330.821 49.5853C335.461 50.3175 354.514 53.8622 356.651 55.7903C363.85 56.9571 377.687 63.5414 383.716 66.6501C397.591 73.8051 403.926 80.287 406.698 81.7968C402.45 74.5664 383.919 59.6021 376.763 54.5867C371.356 50.7974 365.451 47.353 358.781 44.041C351.892 40.6199 342.027 37.0757 338.993 35.5093C336.055 34.948 332.162 33.3717 328.903 32.4807C325.703 31.6068 322.411 30.6751 319.206 29.9015C316.194 29.1744 298.382 26.6139 298.008 26.4347C290.27 26.926 281.911 26.0441 273.565 26.647C258.642 27.7251 246.001 30.7774 231.805 34.8635C228.194 35.9033 215.061 40.477 212.629 40.3727Z" fill="#FDFDFD"/>
<path fill-rule="evenodd" clip-rule="evenodd" d="M287.198 162.229C285.989 162.955 286.54 162.671 285.483 163.488C277.958 169.301 242.602 191.583 239.725 194.514C248.869 195.651 259.04 197.967 268.211 199.585C296.134 204.513 330.361 208.857 358.39 210.073C381.663 211.082 423.315 210.965 441.395 192.344C453.26 180.125 449.353 174.976 452.546 169.425C450.106 162.974 446.042 155.406 442.779 149.735C440.641 146.02 433.761 134.72 430.862 133.094C433.115 138.766 432.63 149.501 430.577 155.285C428.144 162.143 424.448 165.88 419.236 169.055C397.298 182.421 335.777 170.49 308.514 166.451L292.086 163.928C287.651 163.345 288.333 163.527 287.198 162.229Z" fill="#878685"/>
<path fill-rule="evenodd" clip-rule="evenodd" d="M102.019 280.993C97.126 283.329 92.2124 286.421 86.3966 288.961C81.5286 291.088 75.5376 293.721 69.9763 295.453C56.2835 299.716 44.4682 301.372 30.9707 296.708L32.358 298.14C24.2725 301.672 21.6496 315.028 25.6563 326.235C28.0391 332.902 35.6456 346.857 39.4548 351.067C36.949 342.622 34.6688 336.518 39.7785 328.51C49.9575 312.559 92.5012 312.358 109.921 312.303C119.919 312.272 220.867 314.179 221.895 314.637C226.629 312.722 233.713 307.836 238.458 305.004L271.198 286.275C274.241 284.618 286.135 278.709 287.79 277.041C280.74 278.543 144.547 280.559 125.014 281.212C123.085 281.277 104.83 282.271 103.298 281.751C101.597 281.172 103.192 282.35 102.019 280.993Z" fill="#777676"/>
<path fill-rule="evenodd" clip-rule="evenodd" d="M390.19 351.39C388.593 353.73 363.066 368.006 358.737 370.46L326.372 388.254C310.266 396.114 298.405 402.376 280.987 410.225C233.751 431.51 195.848 443.739 143.401 429.015C131.626 425.709 127.021 423.17 118.498 420.474C118.874 421.23 118.215 420.454 119.161 421.308L122.033 422.911C123.508 423.619 124.785 424.236 126.148 424.926C145.755 434.844 168.671 442.703 190.589 446.148C245.083 454.711 263.192 442.945 307.962 423.19C313.693 420.66 319.078 417.776 324.543 415.148C329.996 412.524 335.362 409.966 340.498 407.07C350.948 401.177 361.89 395.739 371.706 389.605C376.952 386.327 382.108 383.399 387.23 380.505C390.011 378.934 392.46 377.572 395.226 376.192C402.148 372.737 407.82 371.872 401.152 380.478C402.383 378.9 403.627 378.108 405.416 376.286C412.869 368.692 426.068 350.307 431.456 341.345C437.3 331.625 451.409 304.338 452.717 293.569C450.802 301.481 434.207 326.035 428.425 329.338C424.942 331.327 422.157 332.59 418.696 334.721C413.851 337.703 392.42 351.065 390.19 351.39Z" fill="#FDFDFD"/>
<path fill-rule="evenodd" clip-rule="evenodd" d="M200.713 364.525L174.402 378.653C166.262 383.005 156.264 387.594 147.042 391.048C136.903 394.844 126.559 397.37 114.411 397.858C98.7146 398.488 93.477 395.136 81.292 391.179C84.4594 399.538 104.444 414.201 110.985 416.542C108.997 414.417 103.575 410.393 107.089 406.463C112.347 400.581 139.123 399.499 146.831 398.946C186.132 396.126 228.174 395.327 268.287 392.607C274.643 392.176 325.291 387.628 326.372 388.254L358.737 370.46C363.066 368.006 388.593 353.73 390.191 351.39C367.966 356.347 369.074 356.067 346.091 358.313C330.303 359.856 313.813 360.627 297.93 361.317C290.111 361.658 211.112 365.432 202.799 365.015C200.641 364.908 201.872 365.284 200.713 364.525Z" fill="#777676"/>
<path fill-rule="evenodd" clip-rule="evenodd" d="M15.4983 157.034C11.6319 160.99 6.26875 180.645 4.78035 187.693C2.42325 198.848 0.472748 213.094 1.14965 224.986C0.117848 216.691 6.49755 196.204 12.4012 186.969C19.1238 176.452 28.5128 168.482 40.8894 165.158C51.0048 162.442 60.8482 161.672 71.877 162.433C91.6273 163.797 110.703 167.336 129.732 171.312C138.943 173.237 148.114 175.12 157.364 177.273C161.836 178.314 166.662 179.266 171.148 180.327L181.339 182.371C181.842 182.476 182.726 182.687 183.019 182.855C184.789 183.875 183.388 182.528 184.438 184.21C184.573 184.119 184.758 183.797 184.821 183.908L206.611 168.533C209.97 166.186 227.62 154.467 228.893 152.697C225.781 153.424 169.907 142.894 161.086 141.529C149.606 139.752 137.854 137.999 126.239 136.628C121.744 136.098 91.1197 133.808 90.1539 132.956C84.5201 135.411 77.8963 139.617 71.7757 142.829C60.9426 148.515 34.2455 164.246 22.6178 163.651C17.8006 163.406 16.1628 161.398 15.4983 157.034Z" fill="#777676"/>
<path fill-rule="evenodd" clip-rule="evenodd" d="M296.867 312.623C341.621 308.465 377.878 308.698 419.891 287.797C425.481 285.016 430.418 281.602 434.93 278.221L444.596 269.413C447.326 265.924 446.126 266.826 447.932 266.818C432.628 251.662 382.277 272.91 367.156 279.266C354.956 284.395 343.565 289.618 331.545 295.136C326.781 297.323 298.722 310.724 296.867 312.623Z" fill="#878685"/>
<path fill-rule="evenodd" clip-rule="evenodd" d="M174.258 56.8048C186.154 50.4385 208.063 43.0826 211.065 41.4652C212.501 40.6919 211.797 41.1604 212.629 40.3727C203.839 38.853 168.573 40.009 158.084 40.5887C128.376 42.2314 96.2094 48.8304 72.7967 66.0472C62.9392 73.2954 58.6569 78.2115 51.4742 86.705C50.0007 88.4474 46.1745 92.8216 45.8525 94.7055L56.2196 84.7275C85.4893 59.4238 131.694 56.6747 169.252 55.8637C174.175 55.7572 173.258 55.7917 174.258 56.8048Z" fill="#777676"/>
<path fill-rule="evenodd" clip-rule="evenodd" d="M246.974 58.7865C253.151 57.327 314.064 64.248 332.089 64.201C340.707 64.1792 352.93 63.6426 354.466 55.3229L356.651 55.7903C354.515 53.8622 335.462 50.3175 330.821 49.5853C310.524 46.3801 292.455 47.2254 272.521 51.4003C267.712 52.4075 249.818 56.3436 246.974 58.7865Z" fill="#878685"/>
<path fill-rule="evenodd" clip-rule="evenodd" d="M298.007 26.4347C298.382 26.6139 316.194 29.1744 319.206 29.9015C322.41 30.6751 325.703 31.6068 328.903 32.4807C332.162 33.3717 336.055 34.948 338.992 35.5093C335.953 30.2076 314.23 18.3432 308.664 15.792C302.466 12.9506 276.558 4.91582 269.53 4.57202L266.857 4.96063C266.313 4.91183 264.833 4.60852 263.936 4.48752C262.022 4.22982 259.961 4.10884 257.848 3.88544C250.519 3.11014 221.556 0.725929 217.992 3.09433C237.376 2.47493 264.137 9.54704 282.078 16.6824C289.158 19.4981 293.478 23.0697 299.028 26.1459L298.007 26.4347Z" fill="#878685"/>
<path fill-rule="evenodd" clip-rule="evenodd" d="M217.993 3.0943C221.557 0.725899 250.52 3.11011 257.849 3.88541C259.961 4.10881 262.022 4.22979 263.936 4.48749C264.833 4.60849 266.313 4.9118 266.858 4.9606L269.53 4.57199C266.774 4.49399 251.063 1.9063 243.127 1.42661C190.881 -1.7295 145.602 12.7476 103.043 40.9113C99.7606 43.0832 97.4716 44.7457 94.2486 47.2209C92.7746 48.3531 91.6597 49.1689 90.0998 50.3353C88.473 51.5528 86.8689 52.4763 85.7441 54.0513C88.2009 53.0923 90.4085 51.1905 92.844 49.7233C119.123 33.8924 150.857 20.0579 180.301 11.3065C189.399 8.60249 208.499 3.1654 217.993 3.0943Z" fill="#FDFDFD"/>
<path fill-rule="evenodd" clip-rule="evenodd" d="M251.665 448.275C276.733 448.722 314.399 437.204 334.186 428.148C346.47 422.525 357.12 416.64 367.236 409.733C372.746 405.971 392.475 390.934 395.356 386.324C392.676 388.114 390.651 389.96 387.992 391.885C368.878 405.728 353.109 414.895 330.918 424.881C305.289 436.414 279.692 443.872 251.665 448.275Z" fill="#FDFDFD"/>
<path fill-rule="evenodd" clip-rule="evenodd" d="M455.764 228.009C461.244 235.828 461.627 238.229 461.885 249.925C463.943 245.774 463.418 230.261 463.323 224.616C463.254 220.583 462.909 216.313 462.53 212.299C462.334 210.223 462.139 208.222 461.945 206.152C461.871 205.357 461.808 203.822 461.689 203.129L460.512 200.116C460.069 212.553 460.015 217.182 455.764 228.009Z" fill="#878685"/>
</svg>
